<svg width="18" height="13" viewBox="0 0 18 13" fill="none" xmlns="http://www.w3.org/2000/svg">
<path d="M8.15 0.499999L6.45 0.499999L6.45 3.92857L0.500001 3.92857L0.5 9.07143L6.45 9.07143L6.45 12.5L8.15 12.5L8.15 10.7857L9.85 10.7857L9.85 9.07143L11.55 9.07143L11.55 7.35714L13.25 7.35714L13.25 5.64286L11.55 5.64286L11.55 3.92857L9.85 3.92857L9.85 2.21429L8.15 2.21429L8.15 0.499999ZM12.4 10.7857L14.1 10.7857L14.1 9.07143L15.8 9.07143L15.8 7.35714L17.5 7.35714L17.5 5.64286L15.8 5.64286L15.8 3.92857L14.1 3.92857L14.1 2.21429L12.4 2.21429L12.4 0.5L10.7 0.499999L10.7 2.21429L12.4 2.21429L12.4 3.92857L14.1 3.92857L14.1 5.64286L15.8 5.64286L15.8 7.35714L14.1 7.35714L14.1 9.07143L12.4 9.07143L12.4 10.7857ZM12.4 10.7857L10.7 10.7857L10.7 12.5L12.4 12.5L12.4 10.7857Z" fill="white"/>
</svg>
