<svg width="533" height="210" viewBox="0 0 533 210" fill="none" xmlns="http://www.w3.org/2000/svg">
<g style="mix-blend-mode:difference">
<path d="M225.599 145.765H221.006V66.943H225.599C252.603 66.943 269.067 79.0931 269.067 107.702C269.067 134.428 250.165 145.765 225.599 145.765ZM418.789 86.9101V134.957H452.27C448.761 147.378 433.911 152.77 422.299 152.77C398.275 152.77 384.225 131.719 384.225 109.315C384.225 84.7559 398.804 62.0804 425.266 62.0804C437.149 62.0804 447.677 67.4846 453.342 77.739L522.459 52.3677C506.537 17.5421 457.935 0 422.57 0C381.072 0 345.929 16.8034 326.363 46.7296C305.639 16.311 267.478 3.23759 222.361 3.23759H147.025V206.762H240.721C278.364 206.762 309.234 191.51 326.892 165.068C346.754 194.009 381.91 210 422.028 210C453.613 210 486.823 197.308 508.433 173.833C532.47 147.92 532.47 120.123 532.999 86.9224H418.789V86.9101Z" fill="#000000"/>
<path d="M0 206.769H137.975V151.164H74.5227V131.197H131.486V78.2872H74.5227V58.8494H137.975V3.24414H0V206.769Z" fill="#000000"/>
</g>
</svg>
