<svg width="49" height="98" viewBox="0 0 49 98" fill="none" xmlns="http://www.w3.org/2000/svg">
<path d="M29.0347 97.5022V71.0022H33.0347V67.0022H40.5347V71.0022H44.5347V97.5022H29.0347Z" fill="black"/>
<path d="M44.5347 0.502197L44.5347 27.0022L40.5347 27.0022L40.5347 31.0022L33.0347 31.0022L33.0347 27.0022L29.0347 27.0022L29.0347 0.502196L44.5347 0.502197Z" fill="black"/>
<rect x="25.0347" y="35.5022" width="23" height="28" fill="black"/>
<rect x="12.0347" y="39.5022" width="4" height="20" fill="black"/>
<rect x="0.034668" y="39.5022" width="4" height="20" fill="black"/>
<rect x="12.0347" y="39.5022" width="4" height="20" fill="black"/>
<rect x="0.034668" y="35.5022" width="4" height="28" fill="black"/>
<rect x="16.0347" y="35.5022" width="4" height="4" fill="black"/>
<rect x="4.03467" y="31.5022" width="4" height="4" fill="black"/>
<rect x="16.0347" y="59.5022" width="4" height="4" fill="black"/>
<rect x="4.03467" y="63.5022" width="4" height="4" fill="black"/>
</svg>
