<svg width="160" height="85" viewBox="0 0 160 85" fill="none" xmlns="http://www.w3.org/2000/svg">

<path d="M78.2666 2.34082H83.127V6.84082H80.9668V9.36133H69.2646V11.5215H71.2451V13.8623H73.9453V16.3828H76.1055V18.543H78.4463V20.8838H80.7871V23.2236H99.5098V25.7441H115.532V28.085H127.414V30.2451H136.596V32.5859H143.617V34.9258H150.818V37.2666H155.319V39.6064H160V44.8271H155.319V47.168H150.818V49.5088H143.617V51.8486H136.596V54.1895H127.414V56.3496H115.532V58.6895H99.5098V61.21H80.7871V63.5508H78.4463V65.8906H76.1055V68.0518H73.9453V70.5723H71.2451V72.9121H69.2646V75.0723H80.9668V77.5928H83.127V82.0938H78.2666V84.4346H41V75.0723H55.042V72.9121H57.2031V70.5723H59.543V68.0518H62.0635V65.8906H64.4043V61.21H43.3408V58.6895H41V25.7441H43.3408V23.2236H64.4043V18.543H62.0635V16.3828H59.543V13.8623H57.2031V11.5215H55.042V9.36133H41V0H78.2666V2.34082ZM79.1631 35.8955C76.5938 35.8955 74.4175 36.9352 73.2061 38.7881C71.923 36.905 69.5607 36.0958 66.7676 36.0957H62.1025V48.6963H67.9043C70.2347 48.6962 72.146 47.7522 73.2393 46.1152C74.469 47.9069 76.6453 48.8964 79.1289 48.8965C81.0844 48.8965 83.1415 48.1107 84.4795 46.6572C85.9672 45.053 85.9672 43.3317 86 41.2764H78.9287V44.251H81.002C80.7846 45.0198 79.8653 45.3534 79.1465 45.3535C77.6591 45.3535 76.7891 44.0502 76.7891 42.6631C76.7891 41.1426 77.6917 39.7383 79.3301 39.7383C80.0657 39.7384 80.7177 40.0732 81.0684 40.708L85.3477 39.1377C84.3619 36.9816 81.3527 35.8956 79.1631 35.8955ZM53 48.6973H61.543V45.2539H57.6143V44.0176H61.1406V40.7422H57.6143V39.5391H61.543V36.0957H53V48.6973ZM66.9678 40.04C68.6396 40.0401 69.6592 40.7922 69.6592 42.5635C69.6591 44.218 68.4886 44.9199 66.9678 44.9199H66.6836V40.04H66.9678Z" fill="white"/>
</svg>
