<svg width="160" height="85" viewBox="0 0 160 85" fill="none" xmlns="http://www.w3.org/2000/svg">
<path d="M78.2666 2.34082H83.127V6.84082H80.9668V9.36133H69.2646V11.5215H71.2451V13.8623H73.9453V16.3828H76.1055V18.543H78.4463V20.8838H80.7871V23.2236H99.5098V25.7441H115.532V28.085H127.414V30.2451H136.596V32.5859H143.617V34.9258H150.818V37.2666H155.319V39.6064H160V44.8271H155.319V47.168H150.818V49.5088H143.617V51.8486H136.596V54.1895H127.414V56.3496H115.532V58.6895H99.5098V61.21H80.7871V63.5508H78.4463V65.8906H76.1055V68.0518H73.9453V70.5723H71.2451V72.9121H69.2646V75.0723H80.9668V77.5928H83.127V82.0938H78.2666V84.4346H41V75.0723H55.042V72.9121H57.2031V70.5723H59.543V68.0518H62.0635V65.8906H64.4043V61.21H43.3408V58.6895H41V25.7441H43.3408V23.2236H64.4043V18.543H62.0635V16.3828H59.543V13.8623H57.2031V11.5215H55.042V9.36133H41V0H78.2666V2.34082Z" fill="white"/>
<path d="M-4.53692e-07 44.6207C0.121677 44.6598 0.269429 44.4987 0.310402 44.4987L2.5453 44.4987L2.73154 44.6818L2.73154 46.8784C2.73154 46.9211 2.51178 47.0139 2.79362 47.1835L5.33893 47.1835L5.33893 41.9359L10.5537 41.9359L10.5537 39.3732L7.94631 39.3732L7.94631 36.8104L2.79362 36.8104L2.63718 36.9886L2.68436 39.195L2.54406 39.3732L-6.83071e-07 39.3732L-7.95094e-07 36.8104L2.60738 36.8104L2.60738 34.3086L2.79362 34.1256L5.33893 34.1256L5.33893 31.5628L10.5537 31.5628L10.5537 34.1256L15.8926 34.1256L15.8926 31.5628L18.5 31.5628L18.5 29L31.6611 29L31.6611 31.5628L34.2064 31.5628C34.7092 31.8813 34.1716 34.0353 34.2672 34.1256C35.1587 34.366 36.2165 33.8388 37 34.3086L37 49.7463L34.4547 49.7463C34.148 49.9428 34.3914 50.2235 34.3988 50.5347C34.4125 51.1253 34.3765 51.7209 34.3926 52.3091L29.0537 52.3091L29.0537 54.8108C29.0537 54.8755 28.8476 55.011 28.7408 54.9915L18.9284 55L18.5 54.8108L18.5 52.3091L15.8926 52.3091L15.8926 49.7463L13.3473 49.7463L13.1611 49.5632L13.1611 47.3666C13.1611 47.33 13.3188 47.2726 13.2852 47.1835L7.94631 47.1835L7.94631 49.7463L2.79362 49.7463L2.60738 49.5632L2.60738 47.4886C2.60738 47.4508 2.77748 47.3153 2.73154 47.1835L-3.41669e-07 47.1835L-4.53692e-07 44.6207ZM18.5 41.9359C19.3679 41.9323 20.2395 41.9396 21.1074 41.9359C21.1161 42.7877 21.1012 43.6469 21.1074 44.4987L23.4044 44.4987C23.5037 44.4987 23.7793 44.5414 23.798 44.6793L23.7284 46.9907L23.901 47.1835L26.4463 47.1835L26.4463 49.7463L29.0537 49.7463L29.0537 47.1835L31.6611 47.1835L31.6611 44.6818L31.8473 44.4987L34.3926 44.4987L34.3926 36.8104L31.6611 36.8104L31.6611 34.2476L29.2399 34.2476L29.0537 34.0645L29.0537 31.5628L26.4463 31.5628L26.4463 34.1256L29.0537 34.1256L29.0537 36.8104L23.901 36.8104C23.4863 36.1038 23.7768 35.0384 23.8389 34.2476L21.1074 34.2476L21.1074 36.8104L23.7148 36.8104C23.675 36.93 23.8389 37.0752 23.8389 37.1155L23.8389 41.9359C22.9301 41.9384 22.0162 41.9323 21.1074 41.9359C21.0987 41.0841 21.1136 40.225 21.1074 39.3732L18.5 39.3732C18.4938 40.225 18.5087 41.0841 18.5 41.9359C17.6321 41.9396 16.7605 41.9323 15.8926 41.9359L15.8926 44.4987L18.3796 44.5695C18.5968 44.4133 18.495 42.3655 18.5 41.9359ZM21.1074 49.7463L21.1074 52.3091L23.7148 52.3091C23.7272 51.7624 23.6961 51.2107 23.7148 50.6628C23.721 50.4919 23.9941 49.7463 23.6527 49.7463L21.1074 49.7463Z" fill="white"/>
<path d="M66.9674 44.9199H66.683V40.0397H66.9674C68.6393 40.0397 69.6586 40.792 69.6586 42.5633C69.6586 44.218 68.4883 44.9199 66.9674 44.9199ZM78.9285 41.276V44.2507H81.0015C80.7842 45.0198 79.8647 45.3536 79.1458 45.3536C77.6584 45.3536 76.7885 44.0503 76.7885 42.6631C76.7885 41.1426 77.6912 39.7387 79.3295 39.7387C80.0652 39.7387 80.7171 40.0733 81.0678 40.7081L85.3471 39.1373C84.3613 36.9811 81.3522 35.895 79.1626 35.895C76.5933 35.895 74.4174 36.9354 73.206 38.7882C71.9229 36.9049 69.5602 36.0955 66.7668 36.0955H62.1025V48.6965H67.9036C70.2342 48.6965 72.1455 47.7522 73.2388 46.115C74.4685 47.9069 76.6452 48.8969 79.129 48.8969C81.0846 48.8969 83.1407 48.1111 84.4787 46.6577C85.9669 45.0533 85.9669 43.3323 85.9997 41.2767H78.9285V41.276Z" fill="black"/>
<path d="M53 48.6967H61.5426V45.254H57.614V44.0177H61.1408V40.7419H57.614V39.5384H61.5426V36.0957H53V48.6967Z" fill="black"/>
</svg>
