<svg width="160" height="85" viewBox="0 0 160 85" fill="none" xmlns="http://www.w3.org/2000/svg">
<path d="M78.2666 2.34082H83.127V6.84082H80.9668V9.36133H69.2646V11.5215H71.2451V13.8623H73.9453V16.3828H76.1055V18.543H78.4463V20.8838H80.7871V23.2236H99.5098V25.7441H115.532V28.085H127.414V30.2451H136.596V32.5859H143.617V34.9258H150.818V37.2666H155.319V39.6064H160V44.8271H155.319V47.168H150.818V49.5088H143.617V51.8486H136.596V54.1895H127.414V56.3496H115.532V58.6895H99.5098V61.21H80.7871V63.5508H78.4463V65.8906H76.1055V68.0518H73.9453V70.5723H71.2451V72.9121H69.2646V75.0723H80.9668V77.5928H83.127V82.0938H78.2666V84.4346H41V75.0723H55.042V72.9121H57.2031V70.5723H59.543V68.0518H62.0635V65.8906H64.4043V61.21H43.3408V58.6895H41V25.7441H43.3408V23.2236H64.4043V18.543H62.0635V16.3828H59.543V13.8623H57.2031V11.5215H55.042V9.36133H41V0H78.2666V2.34082Z" fill="white"/>
<path d="M66.9674 44.9199H66.683V40.0397H66.9674C68.6393 40.0397 69.6586 40.792 69.6586 42.5633C69.6586 44.218 68.4883 44.9199 66.9674 44.9199ZM78.9285 41.276V44.2507H81.0015C80.7842 45.0198 79.8647 45.3536 79.1458 45.3536C77.6584 45.3536 76.7885 44.0503 76.7885 42.6631C76.7885 41.1426 77.6912 39.7387 79.3295 39.7387C80.0652 39.7387 80.7171 40.0733 81.0678 40.7081L85.3471 39.1373C84.3613 36.9811 81.3522 35.895 79.1626 35.895C76.5933 35.895 74.4174 36.9354 73.206 38.7882C71.9229 36.9049 69.5602 36.0955 66.7668 36.0955H62.1025V48.6965H67.9036C70.2342 48.6965 72.1455 47.7522 73.2388 46.115C74.4685 47.9069 76.6452 48.8969 79.129 48.8969C81.0846 48.8969 83.1407 48.1111 84.4787 46.6577C85.9669 45.0533 85.9669 43.3323 85.9997 41.2767H78.9285V41.276Z" fill="black"/>
<path d="M53 48.6967H61.5426V45.254H57.614V44.0177H61.1408V40.7419H57.614V39.5384H61.5426V36.0957H53V48.6967Z" fill="black"/>
</svg>
