<svg width="97" height="113" viewBox="0 0 97 113" fill="none" xmlns="http://www.w3.org/2000/svg">
<g clip-path="url(#clip0_6437_239)">
<path d="M74.4267 32.7053C75.0056 32.7585 77.6135 32.474 77.6135 33.1041V45.2015C76.9895 45.3238 74.6816 44.9595 74.3975 45.3557C73.6698 46.3713 74.4586 53.1086 74.1611 54.773C73.5131 54.7464 71.3726 54.6135 71.0911 55.0229C70.7299 55.5414 71.1097 57.4876 70.9743 58.2294H64.6005V61.4226H67.7874V74.1846H64.6005V83.6232C64.6005 83.6525 64.9697 84.022 64.9989 84.022H74.4267V80.8315H83.9873V77.641C84.3033 77.9999 87.1741 77.8032 87.1741 77.641V67.8036H90.3636C90.3424 65.6819 90.3875 63.5443 90.3636 61.4226C89.304 61.4146 88.2337 61.4279 87.1741 61.4226V58.2294C88.2337 58.2374 89.304 58.2241 90.3636 58.2294C90.3716 59.2902 90.3504 60.3617 90.3636 61.4226C91.4233 61.4305 92.4909 61.4173 93.5505 61.4226V67.8036C94.1162 67.8568 96.7374 67.5696 96.7374 68.2024V80.5656H93.5505V86.9467H90.361V90.1372H84.3856C83.735 90.1372 84.0537 92.9954 83.9873 93.5936H77.6135V99.9746H71.2398V103.165H61.4137V106.358L58.2242 106.356V109.549H51.8531V112.739H35.9188V109.546L32.7293 109.549V106.356H16.5321C16.5294 105.295 16.5374 104.226 16.5321 103.165H19.7216L19.7243 100.129C19.6818 99.8496 17.0314 99.9826 16.5321 99.9746C13.3506 99.9374 10.1531 100.001 6.96887 99.9746V96.7814L3.78201 96.7841V93.5909L0.61109 93.3144C0.528763 92.3546 0.66686 91.3629 0.597811 90.4031H10.1584V83.7562H6.96887C6.99012 81.6345 6.94497 79.4968 6.96887 77.3751C6.98215 76.3143 6.9609 75.2428 6.96887 74.182H10.1584C10.1504 76.4845 10.161 78.7949 10.1584 81.0974L13.3452 80.8289V84.0194H25.9599C26.5919 84.0194 26.3051 81.3952 26.3556 80.8262C29.6513 81.0602 29.7788 80.9379 29.5424 77.6357H32.732V70.9915H29.5424L29.5451 67.7983H26.3556V64.6104H16.5294V67.8009H10.1557C10.1451 68.8618 10.169 69.9306 10.1557 70.9915H3.78201C3.76608 68.8698 3.80857 66.7321 3.78201 64.6104C2.72238 64.5971 1.65213 64.6184 0.5925 64.6104C0.584533 63.5496 0.605778 62.4781 0.5925 61.4173H3.78201C3.78998 62.4754 3.76873 63.5469 3.78201 64.6078C6.96356 64.6476 10.161 64.5785 13.3452 64.6078V61.4146H19.7163V55.0336C16.147 55.35 16.3807 54.8927 16.5321 51.5745H13.3426V45.7279H16.5321L16.5294 48.6552H19.719V51.8431H29.1467C29.7788 51.8431 29.492 49.2189 29.5424 48.6499C32.8382 48.8839 32.963 48.7615 32.7293 45.4594C33.4198 45.3504 35.4408 45.7306 35.802 45.2121C36.2614 44.5501 35.7011 39.9611 35.9188 38.8151C36.3411 38.8391 38.7339 38.98 38.8428 39.081C38.9649 39.198 38.5798 41.3516 39.1694 41.9445C39.759 42.5374 41.8995 42.1412 42.027 42.2742C42.5395 42.8139 42.173 50.5296 42.2925 51.8457C43.3522 51.8537 44.4224 51.8324 45.482 51.8457V55.0362H39.1083V61.4173H35.9215V70.9888H39.111V74.1793H48.6716V70.9888H55.0453V67.7956H58.2321V61.4146C58.758 61.5369 61.419 62.0314 61.419 61.2817V55.0336H58.2295L58.2321 51.8404C56.1102 51.8377 53.9777 51.851 51.8558 51.8404V48.3813L55.0453 48.384V45.4567C55.765 45.3397 58.0144 45.7359 58.3809 45.2094C58.6305 44.8505 58.519 39.7457 58.4977 38.8125H61.4217V42.003H71.2478V38.8098L74.4373 38.8125C74.4187 36.7785 74.4586 34.7313 74.4373 32.6947L74.4267 32.7053ZM42.2925 80.563V87.4758L45.4794 87.2099V90.4004H51.8531V87.2099C52.2223 87.5422 54.9231 87.3216 55.0426 87.2099C55.1674 87.0903 54.947 84.2879 55.0426 83.7535H45.482V80.5603H42.2952L42.2925 80.563ZM71.2398 93.5909C71.1203 92.8651 71.516 90.6158 70.9902 90.2515C70.6848 90.0388 65.1396 90.0495 64.8475 90.2515C64.3217 90.6184 64.7174 92.8571 64.5979 93.5909H71.2372H71.2398ZM32.732 93.5909H29.2769L29.2795 96.7841H26.09V99.9719H32.7293V93.5909H32.732Z" fill="black"/>
<path d="M90.3636 61.4226C90.3875 63.5443 90.3424 65.6819 90.3636 67.8036H87.1741V77.641C87.1741 77.8032 84.3033 77.9999 83.9873 77.641V80.8315H74.4267V84.022H64.9989C64.9697 84.022 64.6005 83.6525 64.6005 83.6232V74.1846H67.7874V61.4226H64.6005V58.2294H70.9743C71.1097 57.4876 70.7299 55.5414 71.0911 55.0229C71.3726 54.6135 73.5131 54.7464 74.1611 54.773C74.4586 53.1086 73.6698 46.3713 74.3975 45.3557C74.6816 44.9595 76.9895 45.3238 77.6135 45.2015V33.1041C77.6135 32.474 75.0056 32.7585 74.4267 32.7053L74.4373 32.6947C74.4586 34.7313 74.4187 36.7785 74.4373 38.8125L71.2478 38.8098V42.003H61.4217V38.8125H58.4977C58.519 39.7457 58.6305 44.8505 58.3809 45.2094C58.0144 45.7359 55.765 45.3397 55.0453 45.4567V48.384L51.8558 48.3813V51.8404C53.9777 51.851 56.1102 51.8377 58.2321 51.8404L58.2295 55.0336H61.419V61.2817C61.419 62.0314 58.758 61.5369 58.2321 61.4146V67.7956H55.0453V70.9888H48.6716V74.1793H39.111V70.9888H35.9215V61.4173H39.1083V55.0362H45.482V51.8457C44.4224 51.8324 43.3522 51.8537 42.2925 51.8457C42.173 50.5296 42.5395 42.8139 42.027 42.2742C41.8995 42.1412 39.759 42.5374 39.1694 41.9445C38.5798 41.3516 38.9649 39.198 38.8428 39.081C38.7339 38.98 36.3411 38.8391 35.9188 38.8151C35.7011 39.9611 36.2614 44.5501 35.802 45.2121C35.4408 45.7306 33.4198 45.3504 32.7293 45.4594C32.963 48.7615 32.8382 48.8839 29.5424 48.6499C29.492 49.2189 29.7788 51.8431 29.1467 51.8431H19.719V48.6552H16.5294L16.5321 45.7279H13.3426V51.5745H16.5321C16.3807 54.8927 16.147 55.35 19.7163 55.0336V61.4146H13.3452V64.6078C10.161 64.5785 6.96356 64.6476 3.78201 64.6078C3.76874 63.5469 3.78998 62.4754 3.78201 61.4173H0.5925C0.605778 62.4781 0.584533 63.5496 0.5925 64.6104C1.65213 64.6184 2.72238 64.5971 3.78201 64.6104C3.80857 66.7321 3.76608 68.8698 3.78201 70.9915H10.1557C10.169 69.9306 10.1451 68.8618 10.1557 67.8009H16.5294V64.6104H26.3556V67.7983H29.5451L29.5424 70.9915H32.732V77.6357H29.5424C29.7788 80.9379 29.6513 81.0602 26.3556 80.8262C26.3051 81.3952 26.5919 84.0194 25.9599 84.0194H13.3452V80.8289L10.1584 81.0974C10.161 78.7949 10.1504 76.4845 10.1584 74.182H6.96887C6.9609 75.2428 6.98215 76.3143 6.96887 77.3751C6.94497 79.4968 6.99012 81.6345 6.96887 83.7562H10.1584V90.4031H0.597811C0.66686 91.3629 0.528763 92.3546 0.61109 93.3144L3.78201 93.5909V96.7841L6.96887 96.7814V99.9746C10.1531 100.001 13.3506 99.9374 16.5321 99.9746C17.0314 99.9826 19.6818 99.8496 19.7243 100.129L19.7216 103.165H16.5321C16.5374 104.226 16.5294 105.295 16.5321 106.356H32.7293V109.549L35.9188 109.546V112.739H51.8531V109.549H58.2242V106.356L61.4137 106.358V103.165H71.2398V99.9746H77.6135V93.5936H83.9873C84.0537 92.9954 83.735 90.1372 84.3856 90.1372H90.361V86.9467H93.5505V80.5656H96.7374V68.2024C96.7374 67.5696 94.1162 67.8568 93.5505 67.8036V61.4226C92.4909 61.4173 91.4233 61.4305 90.3636 61.4226ZM90.3636 61.4226C89.304 61.4146 88.2338 61.4279 87.1741 61.4226V58.2294C88.2338 58.2374 89.304 58.2241 90.3636 58.2294C90.3716 59.2902 90.3504 60.3617 90.3636 61.4226ZM42.2925 80.563V87.4758L45.4794 87.2099V90.4004H51.8531V87.2099C52.2223 87.5422 54.9231 87.3216 55.0426 87.2099C55.1674 87.0903 54.947 84.2879 55.0426 83.7535H45.482V80.5603H42.2952L42.2925 80.563ZM71.2398 93.5909C71.1203 92.8651 71.516 90.6158 70.9902 90.2515C70.6848 90.0388 65.1397 90.0495 64.8475 90.2515C64.3217 90.6184 64.7174 92.8571 64.5979 93.5909H71.2372H71.2398ZM32.732 93.5909H29.2769L29.2795 96.7841H26.09V99.972H32.7293V93.5909H32.732Z" stroke="white" stroke-width="2" stroke-miterlimit="10"/>
<path d="M74.1606 54.773C74.3731 54.7809 74.8299 55.0362 75.3371 55.0495C78.2159 55.1292 81.1133 54.967 83.9894 55.0362V58.2293C85.0464 58.232 86.1166 58.2214 87.1736 58.2293V61.4225C88.2306 61.4278 89.3008 61.4145 90.3605 61.4225C90.387 63.5442 90.3392 65.6819 90.3605 67.8062H87.171V77.641C87.171 77.8031 84.3001 77.9999 83.9868 77.641V80.8315H74.4235V84.022H64.9957C64.9665 84.022 64.5974 83.6524 64.5974 83.6232V74.1846H67.7842V61.4225H64.5947V58.232H70.9684C71.1039 57.4902 70.7241 55.544 71.0853 55.0255C71.3695 54.6188 73.51 54.7517 74.1553 54.7756L74.1606 54.773Z" fill="#646464" stroke="white" stroke-width="2" stroke-miterlimit="10"/>
<path d="M0.597136 61.4199C0.570578 59.2982 0.618381 57.1605 0.597136 55.0362H3.78665V48.3919H10.1604V45.2014H16.5341V38.8204H22.9078V35.6299H32.7339V38.8231C33.7883 38.8629 34.8665 38.7619 35.9208 38.8231C35.703 39.969 36.2634 44.5607 35.804 45.22C35.4428 45.7385 33.4218 45.3583 32.7313 45.4673C32.965 48.7695 32.8402 48.8918 29.5444 48.6578C29.4913 49.2241 29.7808 51.851 29.1487 51.851H19.7209V48.6578L16.5314 48.6605V45.7332H13.3472V51.5824H16.5367C16.3854 54.8979 16.1543 55.3552 19.7209 55.0388V61.4199H13.3472V64.613C10.1657 64.5811 6.9682 64.6503 3.78665 64.613C3.77337 63.5522 3.79462 62.4807 3.78665 61.4199H0.597136Z" fill="#646464" stroke="white" stroke-width="2" stroke-miterlimit="10"/>
<path d="M51.853 51.8485C53.9749 51.8564 56.1074 51.8431 58.2293 51.8485V55.0416H61.4135V61.2897C61.4135 62.0395 58.7525 61.545 58.2267 61.4227V67.8037H55.0372V70.9942H48.6634V74.1847H39.1029V70.9915H35.916V61.42H39.1029V55.039H45.4766V51.8485C47.5959 51.8751 49.731 51.8405 51.8503 51.8485H51.853Z" fill="#646464" stroke="white" stroke-width="2" stroke-miterlimit="10"/>
<path d="M10.1577 70.9914C10.171 69.9305 10.1471 68.8617 10.1577 67.8009H16.5314V64.6104H26.3576V67.8035L29.5471 67.8009V70.994H32.7313V77.6409H29.5418C29.7781 80.9431 29.6506 81.0654 26.3549 80.8288C26.3018 81.3951 26.5913 84.022 25.9592 84.022H13.3446V80.8314L10.1577 81.1C10.1604 78.8002 10.1497 76.487 10.1577 74.1872C10.1604 73.1264 10.1444 72.0575 10.1577 70.9967V70.9914Z" fill="#646464" stroke="white" stroke-width="2" stroke-miterlimit="10"/>
<path d="M58.4918 38.8203C58.4918 38.7858 58.2262 38.5199 58.2156 38.1769C58.1625 36.2679 58.2767 34.3457 58.2262 32.4393H61.4158V29.2515H74.4288C74.4367 30.4 74.4155 31.5593 74.4288 32.7079C74.45 34.7418 74.4128 36.7891 74.4288 38.8257H71.2392V42.0135H61.4131V38.8203H58.4918Z" fill="#646464" stroke="white" stroke-width="2" stroke-miterlimit="10"/>
<path d="M6.97111 77.3726C6.94455 79.4942 6.99235 81.6319 6.97111 83.7562H10.1606V90.4005H0.597389C0.592077 90.3287 0.334473 89.9804 0.313227 89.5018C0.262769 88.4224 0.201687 81.1693 0.448669 80.813C0.815157 80.2866 3.06189 80.6827 3.7869 80.5657V77.3726H6.97111Z" fill="#646464" stroke="white" stroke-width="2" stroke-miterlimit="10"/>
<path d="M51.853 22.868V29.2517L48.6635 29.2491V32.4422H42.2924C42.2659 30.3205 42.3137 28.1829 42.2924 26.0586H45.482L45.4793 22.868C47.6012 22.8893 49.7338 22.8441 51.8557 22.868H51.853Z" fill="#646464" stroke="white" stroke-width="2" stroke-miterlimit="10"/>
<path d="M51.8531 22.868C52.9128 22.8813 53.9804 22.8574 55.04 22.868V32.4396H51.8505V35.6301H42.2899C42.2793 34.5693 42.3032 33.5004 42.2899 32.4396H48.6663L48.6636 29.2464H51.8531V22.868Z" fill="black" stroke="white" stroke-width="2" stroke-miterlimit="10"/>
<path d="M26.3583 19.6774C26.3556 19.6322 26.1033 19.3823 26.0821 19.034C25.8962 15.7903 26.1299 16.1333 29.2796 16.221V13.0278H35.9162C35.9082 14.1764 35.9268 15.3356 35.9162 16.4842C35.9056 17.5451 35.9242 18.6165 35.9162 19.6774H32.4611L32.4638 22.8679C31.5847 22.7483 30.3551 23.0328 29.5398 22.8679C29.4123 22.8413 29.3008 22.7297 29.2742 22.602C29.1654 22.0676 29.3991 19.7997 29.2742 19.6747H26.3503L26.3583 19.6774Z" fill="#646464" stroke="white" stroke-width="2" stroke-miterlimit="10"/>
<path d="M35.9184 16.4868C36.2742 16.5931 38.8397 16.3406 38.8397 16.4868V22.8678H35.9157V26.0583H29.542V22.8678C30.3546 23.0327 31.5842 22.7482 32.4659 22.8678V19.6747L35.9184 19.6773C35.9237 18.6165 35.9077 17.545 35.9184 16.4841V16.4868Z" fill="black" stroke="white" stroke-width="2" stroke-miterlimit="10"/>
<path d="M35.9182 9.84001C34.771 9.85065 33.6131 9.83203 32.4658 9.84001V3.45898H39.1051C39.1051 4.51983 39.1051 5.58865 39.1051 6.6495H35.9156V9.84001H35.9182Z" fill="#646464" stroke="white" stroke-width="2" stroke-miterlimit="10"/>
<path d="M55.0401 0.266113H51.8506V3.45929H55.0401V0.266113Z" fill="#646464" stroke="white" stroke-width="2" stroke-miterlimit="10"/>
<path d="M39.1058 6.64941V9.84259C38.0488 9.8479 36.9786 9.83195 35.9189 9.84259V6.64941H39.1058Z" fill="black" stroke="white" stroke-width="2" stroke-miterlimit="10"/>
<path d="M16.5321 99.9721C17.0288 99.9774 19.6818 99.8471 19.7243 100.126V103.165H16.5321C16.5268 102.104 16.5348 101.036 16.5321 99.9747V99.9721Z" fill="#646464" stroke="white" stroke-width="2" stroke-miterlimit="10"/>
<path d="M26.3583 19.6777H29.2823C29.4044 19.8 29.1734 22.068 29.2823 22.6024H26.3583C26.3079 21.6372 26.43 20.6402 26.3583 19.6777Z" fill="black" stroke="white" stroke-width="2" stroke-miterlimit="10"/>
<path d="M42.292 80.563H45.4815V83.7535H55.0421C54.9491 84.2906 55.1696 87.0929 55.0421 87.2099C54.9252 87.3216 52.2217 87.5422 51.8552 87.2099V90.4004H45.4789V87.2099L42.292 87.4758V80.563Z" fill="#646464" stroke="white" stroke-width="2" stroke-miterlimit="10"/>
<path d="M32.7318 93.591V99.9721H26.0925L26.0898 96.7789L29.2794 96.7816L29.2767 93.5884L32.7318 93.591Z" fill="#646464" stroke="white" stroke-width="2" stroke-miterlimit="10"/>
<path d="M71.2393 93.5912H64.6C64.7168 92.8547 64.3238 90.6187 64.8496 90.2518C65.1391 90.0497 70.6869 90.0391 70.9923 90.2518C71.5181 90.6187 71.1224 92.868 71.2419 93.5912H71.2393Z" fill="#646464" stroke="white" stroke-width="2" stroke-miterlimit="10"/>
</g>
<defs>
<clipPath id="clip0_6437_239">
<rect width="97" height="113" fill="white"/>
</clipPath>
</defs>
</svg>
